<?xml version="1.0" encoding="utf-8"?>
<!-- Generator: Adobe Illustrator 15.1.0, SVG Export Plug-In . SVG Version: 6.00 Build 0)  -->
<!DOCTYPE svg PUBLIC "-//W3C//DTD SVG 1.0//EN" "http://www.w3.org/TR/2001/REC-SVG-20010904/DTD/svg10.dtd">
<svg version="1.0" id="Calque_2" xmlns="http://www.w3.org/2000/svg" xmlns:xlink="http://www.w3.org/1999/xlink" x="0px" y="0px"
	 width="251px" height="786px" viewBox="0 0 251 786" enable-background="new 0 0 251 786" xml:space="preserve">
<rect x="33.718" y="38" fill="none" stroke="#C9C7C8" width="190.854" height="689"/>


<path id="FR-May" title="Mayotte" class="land" d="M145.412,645.834l7.477-10.722l3.869,3.137l3.139,7.646l-3.467,4.996l-3.059,5.742l-3.21,0.291
	L145.412,645.834z M102.136,702.475l-6.164,1.494l0.842-9.438l-7.458-1.038l4.773-7.96l-4.289-0.391l-5.438-11.813l9.776-1.797
	l3.226,4.746l0.761,5.022l6.565,3.502h3.187l-2.426-12.287l-13.634-11.968l3.521-4.355l2.663-0.854l-3.743-2.222l0.536-11.289
	l1.639-0.86l-3.101-0.855l1.252-6.875l-7.226-0.581l-9.955-7.819l2.999-4.575l-3.388-2.162l3.468-8.212l14.97-13.247l10.083,14.076
	l1.547,7.425l5.518,2.558l2.081-1.931l8.831,0.697l14.978,7.827l-1.535,7.509c1.244,3.143,1.244,3.624,1.244,3.786
	c0,0.995-0.54,1.451-5.563,1.482l-9.609,16.364l10.627,11.271l-15.843,23.852l10.287,8.745l-20.17,7.029L102.136,702.475z
	 M70.501,593.159l3.969-4.406l6.735,4.938l-7.772,4.883L70.501,593.159z"/>

<path id="FR-MAR" title="Martinique" class="land" d="M148.201,316.575l-0.953-8.741l-25.549-4.147l-15.11,4.536l-5.56-20.61l19.603-5.083v-9.699H101
	l-27.066-40.259l6.033-24.14h20.275l18.414,8.834l11.954,19.683l20.709-5.917l-0.866,13.78l-11.497,0.601l8.451,5.64l13.799,25.416
	l7.326,25.656l-9.885,14.45H148.201z"/>

<path id="FR-GUY" title="Guyane" class="land" d="M117.462,172.027l-4.254,2.125h-4.953v-6.646l6.734,0.695l7.238-4.739v11.472L117.462,172.027z
	 M93.482,86.547l3.299-4.393h10.995v7.314l-8.714,2.663L93.482,86.547z M59.126,65.544v-3.623h9.063l1.953-3.774l8.324-3.303v12.102
	l-11.035,3.68L59.126,65.544z M174.846,110.676l16.328-6.721v7.868l-13.074,7.005L174.846,110.676z M148.833,168.998l-1.841-11.05
	l6.439-6.438h8.444l6.877,12.837l-9.743,7.425L148.833,168.998z M100.387,159.292l-7.35-14.264l-6.305-23.958l6.549-16.158
	l6.057-0.501l5.074,5.499l16.78,3.902l3.493-5.239l-4.192-15.512l11.065-7.838l9.985,7.265l2.83,15.368l15.194,2.053l2.972,9.916
	l-30.874,7.266h-12.327v22.391l-5.797,9.81H100.387z"/>

<path id="FR-REU" title="Réunion" class="land" d="M114.094,440.395l-21.829,7.596l-15.342-3.704l17.962-42.24l-14.174-16.535l-3.456-25.183l18.546-22.557
	l21.641,11.803l12.498,0.958l31.754,19.54l3.516,19.087l-15.984,21.797l-8.695,27.056l-16.243,10.152L114.094,440.395z"/>

<path id="FR-GUA" title="Guadeloupe" class="land" d="M79.862,557.979L61.883,507.39l9.49-17.626l23.364-16.021h0.31c2.661,0,51.104,6.916,53.163,7.21
	l0.714,0.103l3.987,21.973l27.614,24.982l-4.051,39.172l-44.846,10.712L79.862,557.979z"/>
</svg>
